<svg xmlns="http://www.w3.org/2000/svg" viewBox="0 0 64 64"><title>delivery day</title><g id="_19-shipping_day" data-name="19-shipping day"><rect x="9" y="40" width="2" height="2" id="id_101"></rect><rect x="9" y="46" width="2" height="2" id="id_102"></rect><path d="M63.781,46.375l-4-5A1,1,0,0,0,59,41H49V39.022c8.7-2.229,14.5-9.79,14.5-19.088A19.982,19.982,0,0,0,28.272,7H15V9H26.774a19.894,19.894,0,0,0-2.633,6H4v2H23.74a19.988,19.988,0,0,0-.24,2.934A20.552,20.552,0,0,0,24.421,26H9v2H25.161a19.678,19.678,0,0,0,2.3,4H10a1,1,0,0,0-1,1v3h2V34H47V53.413q-.171.285-.315.587H26.315a6.985,6.985,0,0,0-12.63,0H11V52H9v3a1,1,0,0,0,1,1h3.08a7,7,0,1,0,13.84,0H46.08a7,7,0,1,0,13.84,0H63a1,1,0,0,0,1-1V47A1,1,0,0,0,63.781,46.375ZM20,62a5,5,0,1,1,5-5A5.006,5.006,0,0,1,20,62Zm5.5-42.066a18,18,0,0,1,36,0A17.244,17.244,0,0,1,49,36.958v-.922a16.474,16.474,0,0,0,11.5-16.1,17,17,0,0,0-34,0A16.63,16.63,0,0,0,31.47,32H30.046A18,18,0,0,1,25.5,19.934ZM34.6,32a14.542,14.542,0,0,1-6.1-12.066,15,15,0,0,1,30,0A14.539,14.539,0,0,1,49,33.941V33a1,1,0,0,0-1-1ZM53,62a5,5,0,1,1,5-5A5.006,5.006,0,0,1,53,62Zm9-8H59.315A6.977,6.977,0,0,0,49,51.264V43h9.52L62,47.351Z" id="id_103"></path><path d="M57,45H55v3a1,1,0,0,0,1,1h4V47H57Z" id="id_104"></path><path d="M53,53a4,4,0,1,0,4,4A4,4,0,0,0,53,53Zm0,6a2,2,0,1,1,2-2A2,2,0,0,1,53,59Z" id="id_105"></path><path d="M20,53a4,4,0,1,0,4,4A4,4,0,0,0,20,53Zm0,6a2,2,0,1,1,2-2A2,2,0,0,1,20,59Z" id="id_106"></path><path d="M54,21V19H46.816A3,3,0,0,0,45,17.184V7H43V17.184A2.993,2.993,0,1,0,46.816,21ZM44,21a1,1,0,1,1,1-1A1,1,0,0,1,44,21Z" id="id_107"></path><rect x="4" y="37" width="11" height="2" id="id_108"></rect><rect y="43" width="19" height="2" id="id_109"></rect><rect x="2" y="49" width="13" height="2" id="id_110"></rect></g></svg>