<svg id="Layer_1" data-name="Layer 1" xmlns="http://www.w3.org/2000/svg" viewBox="0 0 64 64"><title>carnival</title><path d="M18,61H4a1,1,0,0,1-1-1V54a1,1,0,0,1,1-1H18a1,1,0,0,1,1,1v6A1,1,0,0,1,18,61ZM5,59H17V55H5Z" id="id_101"></path><path d="M13,55H9a1,1,0,0,1-1-1V18a1,1,0,0,1,1-1h4a1,1,0,0,1,1,1V54A1,1,0,0,1,13,55Zm-3-2h2V19H10Z" id="id_102"></path><path d="M11,19A8,8,0,1,1,18.67,8.72,7.81,7.81,0,0,1,19,11a8,8,0,0,1-8,8ZM11,5a6,6,0,0,0-6,6,6,6,0,0,0,6,6,6,6,0,0,0,5.75-4.28A5.82,5.82,0,0,0,17,11a5.71,5.71,0,0,0-.25-1.71A6,6,0,0,0,11,5Z" id="id_103"></path><path d="M11,15a4,4,0,1,1,4-4A4,4,0,0,1,11,15Zm0-6a2,2,0,1,0,2,2A2,2,0,0,0,11,9Z" id="id_104"></path><path d="M60,61H46a1,1,0,0,1-1-1V54a1,1,0,0,1,1-1H60a1,1,0,0,1,1,1v6A1,1,0,0,1,60,61ZM47,59H59V55H47Z" id="id_105"></path><path d="M55,55H51a1,1,0,0,1-1-1V18a1,1,0,0,1,1-1h4a1,1,0,0,1,1,1V54A1,1,0,0,1,55,55Zm-3-2h2V19H52Z" id="id_106"></path><path d="M53,15a4,4,0,1,1,4-4A4,4,0,0,1,53,15Zm0-6a2,2,0,1,0,2,2A2,2,0,0,0,53,9Z" id="id_107"></path><path d="M32,43a1,1,0,0,1-.94-.66L26.21,28.77a1,1,0,0,1,1.53-1.14L32,30.76l4.26-3.13a1,1,0,0,1,1.53,1.14L32.94,42.34A1,1,0,0,1,32,43ZM29.19,31.18,32,39l2.81-7.85-2.22,1.63a1,1,0,0,1-1.18,0Z" id="id_108"></path><path d="M43,35a1,1,0,0,1-.94-.66l-2.86-8a1,1,0,0,1,.35-1.15l7.76-5.71a1,1,0,0,1,1.53,1.15l-4.9,13.71A1,1,0,0,1,43,35Zm-1.67-8.64L43,31l2.86-8Z" id="id_109"></path><path d="M21,35h0a1,1,0,0,1-.94-.66l-4.9-13.71a1,1,0,0,1,1.53-1.15l7.76,5.71a1,1,0,0,1,.35,1.15l-2.86,8A1,1,0,0,1,21,35ZM18.14,23,21,31l1.67-4.67Z" id="id_110"></path><path d="M32,33a1,1,0,0,1-.59-.19l-19-14a1,1,0,0,1,1.18-1.6l19,14A1,1,0,0,1,32,33Z" id="id_111"></path><path d="M32,33a1,1,0,0,1-.59-1.81l19-14a1,1,0,1,1,1.18,1.6l-19,14A1,1,0,0,1,32,33Z" id="id_112"></path><path d="M53,19a8,8,0,1,1,5.66-2.34A8,8,0,0,1,53,19ZM53,5a6,6,0,0,0-5.75,4.28A5.82,5.82,0,0,0,47,11a5.71,5.71,0,0,0,.25,1.71,6,6,0,1,0,10-6A5.93,5.93,0,0,0,53,5Z" id="id_113"></path><path d="M27.41,14h-9.7a1,1,0,0,1-.8-.4,1,1,0,0,1-.16-.89,6,6,0,0,0,0-3.42,1,1,0,0,1,.16-.89,1,1,0,0,1,.8-.4h9.7a1,1,0,0,1,.92,1.39,4.09,4.09,0,0,0,0,3.22A1,1,0,0,1,27.41,14Zm-8.47-2h7.14a6.29,6.29,0,0,1,0-2H18.94a8.36,8.36,0,0,1,0,2Z" id="id_114"></path><path d="M46.29,14h-9.7a1,1,0,0,1-.92-1.39,4.09,4.09,0,0,0,0-3.22A1,1,0,0,1,36.59,8h9.7a1,1,0,0,1,.8.4,1,1,0,0,1,.16.89,6,6,0,0,0,0,3.42,1,1,0,0,1-.16.89A1,1,0,0,1,46.29,14Zm-8.37-2h7.14a8.36,8.36,0,0,1,0-2H37.92a6.29,6.29,0,0,1,0,2Z" id="id_115"></path><path d="M32,17a6,6,0,0,1-5.5-3.59,6,6,0,0,1,1.25-6.66,6,6,0,0,1,8.49,0A5.91,5.91,0,0,1,37.5,8.59a6,6,0,0,1-1.25,6.66A6,6,0,0,1,32,17ZM32,7a4,4,0,0,0-2.84,1.17,4.23,4.23,0,0,0-.84,1.24,4.1,4.1,0,0,0,0,3.2,4,4,0,0,0,6.51,1.22,4.23,4.23,0,0,0,.84-1.24,4.1,4.1,0,0,0,0-3.2A4,4,0,0,0,32,7Z" id="id_116"></path></svg>