<svg version="1.1" id="Layer_1" xmlns="http://www.w3.org/2000/svg" xmlns:xlink="http://www.w3.org/1999/xlink" x="0px" y="0px" viewBox="0 0 64 64.1999969" style="enable-background:new 0 0 64 64.1999969;" xml:space="preserve">
<path d="M3,62.020607h58c0.5527344,0,1-0.4477539,1-1V13.0044918V3.179297c0-0.5522461-0.4472656-1-1-1H3
	c-0.5527344,0-1,0.4477539-1,1v9.8251953V61.020607C2,61.5728531,2.4472656,62.020607,3,62.020607z M60,60.020607H4V14.0044918h56
	V60.020607z M60,12.0044918H26.4752197L20.5430908,4.179297H60V12.0044918z M4,4.179297h14.0335693l5.9321289,7.8251948H4V4.179297z
	" id="id_101"></path>
<path d="M24.3935547,43.1763687h-1.5855103c-0.8224487-2.6629028-3.5368652-4.581543-6.6791382-4.581543
	c-3.1360474,0-5.8459473,1.9186401-6.6675415,4.581543H7.8759766c-0.5527344,0-1,0.4477539-1,1v1.1313477
	c0,3.1630859,2.5683594,5.7368164,5.7255859,5.7368164h7.0556641c3.1630859,0,5.7363281-2.5737305,5.7363281-5.7368164v-1.1313477
	C25.3935547,43.6241226,24.9462891,43.1763687,24.3935547,43.1763687z M16.1289062,40.5948257
	c2.0136719,0,3.7792969,1.0522461,4.5410156,2.581543h-9.0703125C12.359375,41.6470718,14.1210938,40.5948257,16.1289062,40.5948257
	z M23.3935547,45.3077164c0,2.0605469-1.6757812,3.7368164-3.7363281,3.7368164h-7.0556641
	c-2.0546875,0-3.7255859-1.6762695-3.7255859-3.7368164v-0.1313477H10.25h11.7695312h1.3740234V45.3077164z" id="id_102"></path>
<path d="M29.0283203,56.4346695c0.5527344,0,1-0.4477539,1-1V16.6885738c0-0.5522461-0.4472656-1-1-1s-1,0.4477539-1,1v38.7460938
	C28.0283203,55.9869156,28.4755859,56.4346695,29.0283203,56.4346695z" id="id_103"></path>
<path d="M38,40.8462906h14.5195312c0.5527344,0,1-0.4477539,1-1s-0.4472656-1-1-1H38c-0.5527344,0-1,0.4477539-1,1
	S37.4472656,40.8462906,38,40.8462906z" id="id_104"></path>
<path d="M38,45.8379898h18.1669922c0.5527344,0,1-0.4477539,1-1s-0.4472656-1-1-1H38c-0.5527344,0-1,0.4477539-1,1
	S37.4472656,45.8379898,38,45.8379898z" id="id_105"></path>
<path d="M32,40.8462906h1.4257812c0.5527344,0,1-0.4477539,1-1s-0.4472656-1-1-1H32c-0.5527344,0-1,0.4477539-1,1
	S31.4472656,40.8462906,32,40.8462906z" id="id_106"></path>
<path d="M24.3935547,25.6602535h-1.5855713c-0.8224487-2.6624146-3.5368652-4.5810547-6.6790771-4.5810547
	c-3.1360474,0-5.8458252,1.9186401-6.6675415,4.5810547H7.8759766c-0.5527344,0-1,0.4477539-1,1v1.1318359
	c0,3.1630859,2.5683594,5.7368183,5.7255859,5.7368183h7.0556641c3.1630859,0,5.7363281-2.5737324,5.7363281-5.7368183v-1.1318359
	C25.3935547,26.1080074,24.9462891,25.6602535,24.3935547,25.6602535z M16.1289062,23.0791988
	c2.0136719,0,3.7792969,1.0517578,4.5410156,2.5810547h-9.0703125
	C12.359375,24.1309566,14.1210938,23.0791988,16.1289062,23.0791988z M23.3935547,27.7920895
	c0,2.0605469-1.6757812,3.7368164-3.7363281,3.7368164h-7.0556641c-2.0546875,0-3.7255859-1.6762695-3.7255859-3.7368164v-0.1318359
	H10.25h11.7695312h1.3740234V27.7920895z" id="id_107"></path>
<path d="M38,23.3306637h14.5195312c0.5527344,0,1-0.4477539,1-1s-0.4472656-1-1-1H38c-0.5527344,0-1,0.4477539-1,1
	S37.4472656,23.3306637,38,23.3306637z" id="id_108"></path>
<path d="M38,28.3223629h18.1669922c0.5527344,0,1-0.4477539,1-1s-0.4472656-1-1-1H38c-0.5527344,0-1,0.4477539-1,1
	S37.4472656,28.3223629,38,28.3223629z" id="id_109"></path>
<path d="M38,50.7925797h18.1669922c0.5527344,0,1-0.4477539,1-1s-0.4472656-1-1-1H38c-0.5527344,0-1,0.4477539-1,1
	S37.4472656,50.7925797,38,50.7925797z" id="id_110"></path>
<path d="M38,33.2769547h18.1669922c0.5527344,0,1-0.4477539,1-1c0-0.552248-0.4472656-1.0000019-1-1.0000019H38
	c-0.5527344,0-1,0.4477539-1,1.0000019C37,32.8292007,37.4472656,33.2769547,38,33.2769547z" id="id_111"></path>
<path d="M32,23.3306637h1.4257812c0.5527344,0,1-0.4477539,1-1s-0.4472656-1-1-1H32c-0.5527344,0-1,0.4477539-1,1
	S31.4472656,23.3306637,32,23.3306637z" id="id_112"></path>
<path d="M56.1865234,9.0918941c0.5527344,0,1-0.4477539,1-1s-0.4472656-0.9999995-1-0.9999995h-0.0097656
	c-0.5517578,0-0.9951172,0.4477539-0.9951172,0.9999995S55.6347656,9.0918941,56.1865234,9.0918941z" id="id_113"></path>
<path d="M51.0556641,9.0918941c0.5527344,0,1-0.4477539,1-1s-0.4472656-0.9999995-1-0.9999995h-0.0097656
	c-0.5517578,0-0.9951172,0.4477539-0.9951172,0.9999995S50.5039062,9.0918941,51.0556641,9.0918941z" id="id_114"></path>
<path d="M45.9238281,9.0918941c0.5527344,0,1-0.4477539,1-1s-0.4472656-0.9999995-1-0.9999995h-0.0097656
	c-0.5517578,0-0.9951172,0.4477539-0.9951172,0.9999995S45.3720703,9.0918941,45.9238281,9.0918941z" id="id_115"></path>
<path d="M40.7929688,9.0918941c0.5527344,0,1-0.4477539,1-1s-0.4472656-0.9999995-1-0.9999995h-0.0097656
	c-0.5517578,0-0.9951172,0.4477539-0.9951172,0.9999995S40.2412109,9.0918941,40.7929688,9.0918941z" id="id_116"></path>
<path d="M16.1347656,7.0918946H9.3574219c-0.5527344,0-1,0.4477539-1,0.9999995s0.4472656,1,1,1h6.7773438
	c0.5527344,0,1-0.4477539,1-1S16.6875,7.0918946,16.1347656,7.0918946z" id="id_117"></path>
</svg>